#!OML:ASF H:\Terrain\Patient Classification 1\Walking\liu\liu.ASF
:FULLY-SPECIFIED
:DEGREES
291
root 15.099300 25.292850 5.725500 8.908785 2.813145 5.186655
lowerback -9.171930 -5.567460 -7.146795
upperback -0.112412 -7.031385 3.118860
thorax 5.862360 -3.663045 6.556845
lowerneck -32.635201 -6.017580 -17.604750
upperneck 33.992851 -7.211475 17.411551
head 17.376600 -2.629350 8.301555
rclavicle -0.000000 0.000000
rhumerus -70.642799 11.359409 -124.433853
rradius 60.228298
rwrist -34.143600
rhand -44.185951 -34.586098
rfingers 10.687531
rthumb -4.190100 -79.528351
lclavicle -0.000000 0.000000
lhumerus -16.436251 -32.933250 129.252151
lradius 40.618649
lwrist 10.985940
lhand -23.979900 -36.108898
lfingers 10.687531
lthumb 15.319651 8.489220
rfemur -56.207100 0.570306 22.587299
rtibia 62.713799
rfoot -32.728348 -15.424951
rtoes -31.499100
lfemur -5.150325 6.404325 -44.300850
ltibia 27.382650
lfoot -27.993900 6.532770
ltoes -4.940040
292
root 15.097950 25.304100 5.945835 8.753115 3.310200 5.142150
lowerback -9.075105 -5.669250 -7.162830
upperback -0.237769 -7.170526 3.106410
thorax 5.693490 -3.725835 6.547725
lowerneck -32.291550 -6.080985 -17.282551
upperneck 34.607700 -7.308030 16.712101
head 17.526749 -2.743335 7.980180
rclavicle 0.000000 -0.000000
rhumerus -71.335648 11.061151 -124.543793
rradius 59.836952
rwrist -33.521999
rhand -43.663498 -34.407150
rfingers 10.687531
rthumb -3.685500 -79.355553
lclavicle 0.000000 -0.000000
lhumerus -16.477350 -34.352249 129.551849
lradius 41.476051
lwrist 12.621811
lhand -23.919750 -35.307449
lfingers 10.687531
lthumb 15.377699 9.287745
rfemur -56.267097 1.194131 22.158449
rtibia 59.904900
rfoot -32.082451 -13.916716
rtoes -27.317398
lfemur -3.378420 6.686745 -44.017799
ltibia 25.957802
lfoot -27.971550 5.785425
ltoes -4.567170
293
root 15.107250 25.321800 6.153045 8.685075 4.208535 5.196000
lowerback -8.855805 -5.886330 -7.099470
upperback -0.377978 -7.473975 3.082125
thorax 5.451465 -3.867045 6.472770
lowerneck -31.445702 -5.983935 -18.121950
upperneck 33.995102 -7.289895 18.004351
head 17.188499 -2.672880 8.603370
rclavicle 0.000000 0.000000
rhumerus -72.089249 11.372009 -124.965752
rradius 59.878799
rwrist -33.953552
rhand -44.675098 -38.037601
rfingers 10.687531
rthumb -4.662390 -82.973251
lclavicle 0.000000 0.000000
lhumerus -16.344900 -36.365700 129.813751
lradius 42.198448
lwrist 14.753325
lhand -23.637001 -34.274399
lfingers 10.687531
lthumb 15.650400 10.307265
rfemur -56.436150 1.465275 21.515850
rtibia 57.177299
rfoot -31.630051 -13.978544
rtoes -29.592751
lfemur -1.494629 6.864870 -43.861500
ltibia 24.164549
lfoot -27.546749 4.970880
ltoes -5.277585
294
root 15.103651 25.334249 6.348585 9.148920 4.481760 4.918590
lowerback -9.459599 -5.853765 -6.850904
upperback -0.350392 -7.426110 3.201105
thorax 5.802870 -3.847620 6.422445
lowerneck -31.483801 -6.097710 -18.329550
upperneck 33.689102 -7.432455 18.300900
head 17.117100 -2.716890 8.718705
rclavicle -0.000000 0.000000
rhumerus -72.153748 11.655766 -125.186249
rradius 59.818348
rwrist -34.512901
rhand -46.820549 -45.065250
rfingers 10.687531
rthumb -6.734310 -89.963852
lclavicle -0.000000 0.000000
lhumerus -15.703650 -38.002800 129.969299
lradius 43.027649
lwrist 16.370251
lhand -23.357399 -33.551399
lfingers 10.687531
lthumb 15.920101 11.016615
rfemur -57.472652 2.945850 21.050850
rtibia 54.540150
rfoot -32.224499 -14.599005
rtoes -31.747952
lfemur -0.059539 6.942795 -43.403248
ltibia 21.749100
lfoot -26.740650 4.782180
ltoes -4.991505
